<?xml version="1.0" encoding="UTF-8" standalone="no"?>
<svg
   xmlns:dc="http://purl.org/dc/elements/1.1/"
   xmlns:cc="http://creativecommons.org/ns#"
   xmlns:rdf="http://www.w3.org/1999/02/22-rdf-syntax-ns#"
   xmlns:svg="http://www.w3.org/2000/svg"
   xmlns="http://www.w3.org/2000/svg"
   xmlns:sodipodi="http://sodipodi.sourceforge.net/DTD/sodipodi-0.dtd"
   xmlns:inkscape="http://www.inkscape.org/namespaces/inkscape"
   inkscape:version="1.0 (4035a4fb49, 2020-05-01)"
   sodipodi:docname="logo-bookmark-white.svg"
   id="svg12"
   version="1.1"
   height="25"
   width="148">
  <metadata
     id="metadata18">
    <rdf:RDF>
      <cc:Work
         rdf:about="">
        <dc:format>image/svg+xml</dc:format>
        <dc:type
           rdf:resource="http://purl.org/dc/dcmitype/StillImage" />
      </cc:Work>
    </rdf:RDF>
  </metadata>
  <defs
     id="defs16" />
  <sodipodi:namedview
     inkscape:current-layer="svg12"
     inkscape:window-maximized="1"
     inkscape:window-y="-8"
     inkscape:window-x="-8"
     inkscape:cy="12.5"
     inkscape:cx="74"
     inkscape:zoom="6.8851351"
     showgrid="false"
     id="namedview14"
     inkscape:window-height="801"
     inkscape:window-width="1536"
     inkscape:pageshadow="2"
     inkscape:pageopacity="0"
     guidetolerance="10"
     gridtolerance="10"
     objecttolerance="10"
     borderopacity="1"
     bordercolor="#666666"
     pagecolor="#ffffff" />
  <g
     id="g10"
     fill-rule="evenodd"
     fill="white">
    <path
       id="path2"
       fill-rule="nonzero"
       fill="#242A45"
       d="M37 6.299h5.227c.746 0 1.434.155 2.062.466.629.311 1.123.735 1.484 1.27s.542 1.12.542 1.754c0 .672-.165 1.254-.495 1.746-.33.491-.762.868-1.297 1.129v.15c.697.248 1.25.643 1.661 1.185.41.541.616 1.191.616 1.95 0 .735-.196 1.385-.588 1.951a3.817 3.817 0 0 1-1.587 1.307c-.665.305-1.403.457-2.212.457H37V6.299zm5.04 5.45c.548 0 .986-.152 1.316-.457.33-.305.495-.688.495-1.148 0-.448-.159-.824-.476-1.13-.318-.304-.738-.457-1.26-.457H39.52v3.192h2.52zm.28 5.619c.61 0 1.086-.159 1.428-.476.342-.317.513-.731.513-1.241 0-.51-.174-.927-.522-1.251-.349-.324-.847-.485-1.494-.485H39.52v3.453h2.8zm12.927 2.595c-1.307 0-2.492-.308-3.556-.924a6.711 6.711 0 0 1-2.511-2.53c-.61-1.07-.915-2.246-.915-3.528 0-1.281.305-2.457.915-3.528a6.711 6.711 0 0 1 2.51-2.529C52.756 6.308 53.94 6 55.248 6c1.306 0 2.492.308 3.556.924a6.711 6.711 0 0 1 2.51 2.53c.61 1.07.915 2.246.915 3.527 0 1.282-.305 2.458-.915 3.528a6.711 6.711 0 0 1-2.51 2.53c-1.064.616-2.25.924-3.556.924zm0-2.39a4.52 4.52 0 0 0 2.258-.578 4.177 4.177 0 0 0 1.615-1.624c.392-.697.588-1.494.588-2.39 0-.896-.196-1.692-.588-2.389a4.177 4.177 0 0 0-1.615-1.624 4.52 4.52 0 0 0-2.258-.579 4.47 4.47 0 0 0-2.25.579 4.195 4.195 0 0 0-1.605 1.624c-.392.697-.588 1.493-.588 2.39 0 .895.196 1.692.588 2.389a4.195 4.195 0 0 0 1.605 1.624 4.47 4.47 0 0 0 2.25.578zm15.353 2.39c-1.307 0-2.492-.308-3.556-.924a6.711 6.711 0 0 1-2.51-2.53c-.61-1.07-.915-2.246-.915-3.528 0-1.281.305-2.457.914-3.528a6.711 6.711 0 0 1 2.511-2.529C68.108 6.308 69.294 6 70.6 6c1.307 0 2.492.308 3.556.924a6.711 6.711 0 0 1 2.51 2.53c.61 1.07.915 2.246.915 3.527 0 1.282-.305 2.458-.914 3.528a6.711 6.711 0 0 1-2.511 2.53c-1.064.616-2.25.924-3.556.924zm0-2.39a4.52 4.52 0 0 0 2.259-.578 4.177 4.177 0 0 0 1.614-1.624c.392-.697.588-1.494.588-2.39 0-.896-.196-1.692-.588-2.389a4.177 4.177 0 0 0-1.614-1.624 4.52 4.52 0 0 0-2.259-.579 4.47 4.47 0 0 0-2.25.579 4.195 4.195 0 0 0-1.605 1.624c-.392.697-.588 1.493-.588 2.39 0 .895.196 1.692.588 2.389a4.195 4.195 0 0 0 1.606 1.624 4.47 4.47 0 0 0 2.249.578zM79.83 6.3h2.52v5.73h.15l4.89-5.73h3.043v.149L85.6 11.973l5.338 7.542v.149h-3.08l-3.994-5.693-1.512 1.773v3.92h-2.52V6.299zM93.779 6h3.248l3.546 9.39h.15L104.268 6h3.267v13.365h-2.501v-6.589l.15-2.221h-.15l-3.398 8.81h-1.96l-3.416-8.81h-.149l.15 2.221v6.59h-2.483V6zm20.8 0h2.894l5.021 13.365h-2.781l-1.12-3.192h-5.115l-1.12 3.192h-2.781L114.579 6zm3.193 7.859l-1.176-3.36-.486-1.606h-.149l-.485 1.606-1.195 3.36h3.49zM124.553 6h4.872c.871 0 1.646.18 2.324.541.678.361 1.204.862 1.577 1.503.374.64.56 1.366.56 2.175 0 .858-.27 1.62-.812 2.286a4.617 4.617 0 0 1-2.044 1.447l-.018.13 3.584 5.134v.15h-2.894l-3.453-5.022h-1.176v5.021h-2.52V6zm4.853 6.03c.573 0 1.04-.175 1.4-.523.361-.349.542-.79.542-1.326 0-.51-.172-.945-.514-1.306-.342-.361-.806-.542-1.39-.542h-2.371v3.696h2.333zm7.23-6.03h2.52v5.73h.15l4.89-5.73h3.043v.15l-4.835 5.525 5.34 7.541v.15h-3.08l-3.996-5.694-1.512 1.773v3.92h-2.52V6z" />
    <g
       id="g8">
      <circle
         id="circle4"
         r="12.5"
         cy="12.5"
         cx="12.5"
         fill="#5267DF" />
      <path
         id="path6"
         fill="#FFF"
         d="M9 9v10l3.54-3.44L16.078 19V9a2 2 0 0 0-2-2H11a2 2 0 0 0-2 2z" />
    </g>
  </g>
  <path
     id="path20"
     d="M 37.10893,13.020421 V 6.3999019 l 3.013739,0.00638 c 3.250359,0.00688 3.648756,0.07502 4.700741,0.804046 1.347755,0.9339945 1.780704,2.7701646 0.973281,4.1277541 -0.213794,0.35947 -0.589179,0.784298 -0.83419,0.944062 -0.53099,0.346244 -0.562674,0.553936 -0.115582,0.757645 2.056742,0.937114 2.479254,3.625504 0.830106,5.28186 -1.070845,1.075526 -1.564697,1.192189 -5.336495,1.260645 l -3.2316,0.05865 z m 6.489444,4.041495 c 0.225212,-0.167001 0.502907,-0.567966 0.617099,-0.891034 0.180018,-0.5093 0.180005,-0.659958 -9.9e-5,-1.133166 -0.376146,-0.988289 -0.766851,-1.150873 -2.904936,-1.208828 l -1.877661,-0.05089 v 1.841633 1.841633 l 1.87806,-0.04785 c 1.632577,-0.0416 1.931583,-0.08754 2.287537,-0.351491 z M 42.981646,11.632178 C 43.901095,11.282604 44.189042,9.8208241 43.48589,9.0723528 43.03747,8.5950319 42.358229,8.4350317 40.776251,8.4340779 l -1.343474,-8.1e-4 v 1.6702651 1.670265 h 1.58819 c 0.873504,0 1.75581,-0.06373 1.960679,-0.14162 z"
     style="fill:#ffffff;stroke-width:0.14524" />
  <path
     id="path22"
     d="m 53.81158,19.748736 c -0.35947,-0.06968 -1.111671,-0.352418 -1.671557,-0.628296 -2.721365,-1.340923 -4.260855,-4.437204 -3.663248,-7.367667 0.567362,-2.7821565 2.271847,-4.6468703 4.962582,-5.4290882 1.151332,-0.3347015 3.173717,-0.2372263 4.32636,0.2085225 1.899018,0.7343859 3.430602,2.3778629 4.03274,4.3273607 0.383651,1.242119 0.390713,3.039719 0.01666,4.241549 -1.037082,3.332151 -4.479009,5.330863 -8.003537,4.647619 z m 3.08874,-2.394089 c 0.925287,-0.315277 1.898339,-1.216243 2.385931,-2.209174 0.361565,-0.736291 0.406962,-0.985701 0.402206,-2.209752 -0.0047,-1.205972 -0.05418,-1.473609 -0.392894,-2.124606 C 58.454392,9.19442 57.085262,8.3631911 55.26093,8.3616003 c -2.07886,-0.00181 -3.724622,1.1885781 -4.298833,3.1093747 -0.340085,1.137623 -0.219583,2.761255 0.277121,3.733888 0.454564,0.890116 1.492796,1.844425 2.328972,2.140715 0.81426,0.288525 2.498518,0.293109 3.33213,0.0091 z"
     style="fill:#ffffff;stroke-width:0.14524" />
  <path
     id="path24"
     d="m 68.967111,19.701048 c -1.810082,-0.439059 -3.590605,-1.789841 -4.4402,-3.368526 -1.476485,-2.743549 -0.909655,-6.30419 1.333623,-8.3773863 1.374904,-1.2706606 2.825967,-1.8355451 4.732111,-1.8421642 3.846228,-0.013356 6.884448,2.9971531 6.891402,6.8285455 0.0082,4.515193 -4.153296,7.817991 -8.516936,6.759531 z m 3.517363,-2.463049 c 1.076219,-0.501141 1.709462,-1.127611 2.17938,-2.156072 0.544034,-1.190669 0.592803,-2.989856 0.109838,-4.052109 C 74.337498,10.070436 73.52079,9.2307459 72.570913,8.7650549 71.875714,8.4242228 71.56937,8.3628309 70.58685,8.3674447 c -1.901114,0.00893 -3.165197,0.7767468 -3.98731,2.4219423 -0.38542,0.771294 -0.442523,1.039521 -0.442523,2.078652 0,2.291798 0.979633,3.834609 2.860944,4.505658 0.924477,0.329755 2.608506,0.263833 3.466513,-0.135698 z"
     style="fill:#ffffff;stroke-width:0.14524" />
  <path
     id="path26"
     d="M 79.954858,13.008342 V 6.3999019 h 1.161923 1.161924 v 2.8321884 c 0,2.1731127 0.04225,2.8303607 0.18155,2.8243337 0.09985,-0.0043 1.255012,-1.278805 2.567021,-2.8321883 l 2.38547,-2.8243338 h 1.435663 c 0.925505,0 1.403585,0.051903 1.345392,0.1460616 -0.04965,0.080334 -1.128698,1.3329099 -2.397886,2.7835025 l -2.307616,2.637441 0.266524,0.375477 c 0.146588,0.206512 1.353676,1.911394 2.682418,3.788627 l 2.415894,3.41315 -1.335201,0.0421 c -0.73436,0.02315 -1.412724,0.01235 -1.507475,-0.02401 -0.09475,-0.03636 -1.043051,-1.313448 -2.107335,-2.837975 -1.064284,-1.524527 -1.978574,-2.771868 -2.031757,-2.771868 -0.05318,0 -0.433288,0.386989 -0.844679,0.859975 l -0.747983,0.859976 v 1.972213 1.972213 h -1.161924 -1.161923 z"
     style="fill:#ffffff;stroke-width:0.14524" />
  <path
     id="path28"
     d="M 93.897939,12.712947 V 6.0995935 l 1.55513,0.041224 1.55513,0.041224 1.739738,4.6113835 c 0.956857,2.536261 1.813073,4.611384 1.902713,4.611384 0.0896,0 0.94367,-2.075123 1.89785,-4.611384 l 1.73489,-4.6113835 1.56095,-0.041224 1.56096,-0.041224 V 12.712947 19.3263 h -1.18087 -1.18087 l 0.0649,-4.429833 c 0.0357,-2.436408 0.0208,-4.429833 -0.0331,-4.429833 -0.0539,0 -0.7697,1.748332 -1.59071,3.885182 -0.82102,2.136849 -1.58901,4.130274 -1.70665,4.429833 l -0.2139,0.544651 h -0.90658 -0.906572 l -1.717253,-4.429833 c -0.944489,-2.436408 -1.760691,-4.429833 -1.813781,-4.429833 -0.05309,0 -0.06545,1.993425 -0.02747,4.429833 l 0.06905,4.429833 h -1.181798 -1.181798 z"
     style="fill:#ffffff;stroke-width:0.14524" />
  <path
     id="path30"
     d="m 109.73571,19.21737 c 0.004,-0.05991 1.10034,-3.01737 2.43718,-6.57213 l 2.4306,-6.4631988 h 1.42547 1.42546 l 2.45341,6.5358198 c 1.34937,3.5947 2.45426,6.552159 2.45532,6.572129 10e-4,0.01997 -0.57887,0.03631 -1.28872,0.03631 h -1.29063 l -0.56103,-1.597644 -0.56103,-1.597645 h -2.63478 -2.63477 l -0.54687,1.597645 -0.54688,1.597644 h -1.28465 c -0.70655,0 -1.28169,-0.04902 -1.27808,-0.10893 z m 8.10269,-5.392178 c -0.0266,-0.06997 -0.40788,-1.211964 -0.84723,-2.537771 -0.43935,-1.3258081 -0.87203,-2.4123311 -0.9615,-2.4144959 -0.0895,-0.00216 -0.24833,0.3065155 -0.35301,0.6859562 -0.10469,0.3794406 -0.47265,1.4703087 -0.8177,2.4241517 -0.34505,0.953843 -0.62736,1.78716 -0.62736,1.851816 0,0.06466 0.82242,0.117555 1.82761,0.117555 1.00518,0 1.80582,-0.05724 1.77919,-0.127212 z"
     style="fill:#ffffff;stroke-width:0.14524" />
  <path
     id="path32"
     d="M 124.68891,12.707528 V 6.0887561 l 3.08636,0.046642 c 3.01873,0.045621 3.10227,0.055097 3.81256,0.4325106 0.91806,0.4878118 1.42178,1.018626 1.83907,1.9379789 0.43012,0.9476373 0.4517,2.3668314 0.0486,3.1925384 -0.35523,0.727564 -1.42585,1.763774 -2.05884,1.992666 -0.26531,0.09593 -0.48237,0.23182 -0.48237,0.301969 0,0.114828 1.88107,2.882192 3.15623,4.643346 l 0.49952,0.689892 -1.42846,-0.0064 -1.42847,-0.0064 -1.72155,-2.535328 -1.72155,-2.535327 h -0.6386 -0.63861 v 2.541708 2.541707 h -1.16193 -1.16192 z m 5.80383,-0.880796 c 1.17643,-0.694933 1.17643,-2.6062243 0,-3.3011578 -0.30413,-0.1796542 -0.77718,-0.2375467 -1.94106,-0.2375467 h -1.53892 v 1.8881255 1.888126 h 1.53892 c 1.16388,0 1.63693,-0.05789 1.94106,-0.237547 z"
     style="fill:#ffffff;stroke-width:0.14524" />
  <path
     id="path34"
     d="m 136.74387,12.717861 v -6.60844 h 1.16192 1.16192 v 2.8321884 c 0,2.1730006 0.0423,2.8304096 0.18155,2.8245436 0.0999,-0.0042 1.25809,-1.278689 2.57386,-2.832188 l 2.39231,-2.824544 h 1.42026 c 0.78113,0 1.42025,0.028379 1.42025,0.063064 0,0.034686 -1.04844,1.2601517 -2.32987,2.7232582 -1.33869,1.5284838 -2.30591,2.7528758 -2.27355,2.8780538 0.031,0.119823 1.21013,1.839303 2.62035,3.821068 1.41021,1.981762 2.56403,3.632057 2.56403,3.66732 0,0.03526 -0.6502,0.06411 -1.44489,0.06411 h -1.44488 l -1.9924,-2.832187 c -1.09582,-1.557704 -2.0371,-2.832189 -2.09173,-2.832189 -0.0546,0 -0.43591,0.386989 -0.8473,0.859976 l -0.74799,0.859975 v 1.972213 1.972213 h -1.16192 -1.16192 z"
     style="fill:#000000;stroke-width:0.14524" />
  <path
     id="path36"
     d="m 9.077527,13.749407 c 0,-5.5805588 0.031169,-5.7999891 0.8990128,-6.3290989 0.4232402,-0.2580424 0.7307312,-0.2931832 2.5696142,-0.2936612 1.84952,-4.807e-4 2.143766,0.033401 2.568216,0.2957256 0.897974,0.554979 0.947301,0.905651 0.902176,6.4137005 l -0.0401,4.894464 -1.670264,-1.583309 c -0.918646,-0.87082 -1.719693,-1.58643 -1.780104,-1.590244 -0.06041,-0.0038 -0.861049,0.720793 -1.779195,1.610238 l -1.669357,1.617172 z"
     style="fill:#000000;stroke-width:0.14524" />
  <path
     id="path38"
     d="M 10.997384,24.834461 C 7.0646005,24.360855 3.4340742,21.849538 1.5487494,18.298627 -2.5633782,10.553648 2.4349569,1.1538394 11.193028,0.16171194 15.629711,-0.34088205 20.181585,1.7516599 22.73978,5.469868 c 0.62427,0.907346 1.510695,2.8411929 1.824367,3.9800829 0.365035,1.3253921 0.365579,4.7713161 0.001,6.1000981 -0.363844,1.325958 -1.377085,3.395692 -2.182796,4.458768 -2.613708,3.448598 -7.084361,5.343539 -11.384927,4.825644 z m -0.142843,-7.502947 1.708756,-1.704305 1.708757,1.704305 c 0.939816,0.937368 1.759801,1.704305 1.822191,1.704305 0.06239,0 0.09409,-2.404917 0.07044,-5.34426 C 16.117026,7.7678522 16.134251,7.8751969 15.133424,7.2649534 14.728391,7.0179895 14.394025,6.9818803 12.50782,6.9814065 10.593647,6.9809258 10.292161,7.0143589 9.8726452,7.2736339 8.9512695,7.8430753 8.9322866,7.9746769 8.9322866,13.792804 c 0,2.883659 0.048037,5.243015 0.1067488,5.243015 0.058712,0 0.8756894,-0.766937 1.8155056,-1.704305 z"
     style="fill:#ffffff;stroke-width:0.14524" />
  <path
     id="path40"
     d="m 136.74387,12.717861 v -6.60844 h 1.16192 1.16192 v 2.8321884 c 0,3.0854616 0.0571,3.2690486 0.75199,2.4201336 0.18552,-0.226631 1.28258,-1.5097304 2.4379,-2.851333 l 2.10057,-2.4392772 1.15233,0.088861 c 0.63378,0.048874 1.18351,0.1200469 1.22162,0.1581631 0.0381,0.038116 -0.67776,0.938098 -1.59084,1.9999594 -2.50775,2.9163687 -2.76805,3.2631117 -2.67087,3.5578307 0.0473,0.143524 1.18906,1.829549 2.53717,3.746722 l 2.45111,3.485771 -0.60079,0.09816 c -0.33043,0.05399 -0.92758,0.100118 -1.32699,0.102504 l -0.7262,0.0043 -1.70468,-2.426351 c -0.93758,-1.334493 -1.86736,-2.622426 -2.06617,-2.862072 l -0.36149,-0.435722 -0.80233,0.82236 -0.80233,0.82236 v 2.046139 2.046138 h -1.16192 -1.16192 z"
     style="fill:#ffffff;stroke-width:0.14524" />
</svg>
